<svg xmlns="http://www.w3.org/2000/svg" width="51" height="51" viewBox="0 0 51 51"><path fill="#50CCC8" fill-rule="evenodd" d="M39.811 37.516v-9.955c0-5.334-2.847-7.816-6.643-7.816-3.064 0-4.436 1.686-5.201 2.868v-2.46h-5.772c.077 1.63 0 17.363 0 17.363h5.772V27.82c0-.518.037-1.037.19-1.407.417-1.037 1.366-2.11 2.96-2.11 2.09 0 2.924 1.591 2.924 3.925v9.29h5.77v-.002zM16.115 17.784c2.012 0 3.266-1.335 3.266-3.002-.038-1.702-1.254-2.998-3.228-2.998-1.973 0-3.264 1.295-3.264 2.998 0 1.667 1.252 3.002 3.19 3.002h.036zM25.5 51C11.417 51 0 39.583 0 25.5 0 11.416 11.417 0 25.5 0S51 11.416 51 25.5C51 39.583 39.583 51 25.5 51zM19 37.516V20.154h-5.77v17.362H19z"/></svg>
