<svg xmlns="http://www.w3.org/2000/svg" width="51" height="50" viewBox="0 0 51 50"><g fill="#50CCC8"><path d="M23.628 20.521c.16-.066.38-.099.657-.099.087 0 .263.008.526.022a37.8 37.8 0 0 1 1.292.11l-2.366-6.833c-.613-1.738-1.087-2.873-1.423-3.406-.337-.533-.701-.8-1.096-.8a.914.914 0 0 0-.744.35c-.19.234-.285.548-.285.943 0 .671.255 1.84.767 3.504.51 1.665 1.277 3.847 2.3 6.548a.731.731 0 0 1 .372-.339zm2.628 8.816c.35-.438.72-.836 1.106-1.194a9.252 9.252 0 0 1 1.216-.953 13.464 13.464 0 0 1-1.785-.197 9.471 9.471 0 0 1-1.61-.438c.233.468.441.934.624 1.402.183.467.332.927.45 1.38z"/><path d="M34.185 23.73c-.6-.496-1.764-.942-3.494-1.336a24.334 24.334 0 0 0-5.42-.592c-.526 0-.898.088-1.117.263-.22.175-.329.475-.329.898 0 .993.555 1.712 1.665 2.157 1.109.446 2.905.668 5.388.668h.898c.204 0 .368.077.492.23.124.154.208.384.252.69-.248.234-.76.5-1.533.8-.774.299-1.365.595-1.774.887a7.867 7.867 0 0 0-2.114 2.288c-.533.884-.799 1.72-.799 2.508 0 .482.113 1.063.34 1.741.226.68.339 1.099.339 1.26v.153l-.044.197c-.643-.044-1.15-.42-1.522-1.128-.372-.708-.558-1.653-.558-2.836v-.197c-.118.102-.23.175-.34.22a.967.967 0 0 1-.361.065 2.01 2.01 0 0 1-.373-.033 3.782 3.782 0 0 1-.394-.099c.044.161.077.318.099.471.021.153.032.274.032.362 0 .54-.211 1.004-.635 1.39-.424.387-.927.58-1.51.58-.92 0-1.855-.448-2.804-1.346-.95-.898-1.424-1.778-1.424-2.64 0-.16.018-.302.055-.427a.733.733 0 0 1 .186-.317c.204.248.489.613.854 1.095.964 1.329 1.854 1.993 2.672 1.993.277 0 .526-.087.745-.263.219-.175.328-.358.328-.547 0-.22-.146-.584-.438-1.095a14.14 14.14 0 0 0-1.204-1.73c-.584-.745-1.07-1.29-1.457-1.632-.387-.343-.697-.515-.93-.515-.512 0-.983.274-1.413.821-.431.548-.646 1.194-.646 1.939 0 .599.15 1.267.449 2.004.299.737.733 1.478 1.303 2.223a8.693 8.693 0 0 0 3.209 2.66c1.277.622 2.69.931 4.238.931 2.847 0 5.23-1.062 7.15-3.186 1.92-2.124 2.88-4.785 2.88-7.983 0-.978-.073-1.756-.218-2.333-.147-.577-.388-.997-.723-1.26z"/><path d="M20.78 28.395c.643.861 1.249 1.533 1.819 2.015.569.482 1.021.723 1.357.723.249 0 .475-.113.68-.34.204-.226.306-.47.306-.734 0-.277-.2-.923-.602-1.938a19.43 19.43 0 0 0-1.5-2.99c-.439-.73-.87-1.28-1.293-1.653-.424-.373-.825-.559-1.204-.559-.307 0-.646.194-1.019.58-.372.388-.558.749-.558 1.085 0 .35.182.876.547 1.577.365.7.854 1.445 1.468 2.234z"/><path d="M25.556.07C11.956.07.93 11.092.93 24.691c0 13.6 11.025 24.625 24.625 24.625 13.598 0 24.624-11.025 24.624-24.625S39.154.07 25.556.07zm7.785 36.374c-2.212 2.343-5.04 3.515-8.487 3.515a10.97 10.97 0 0 1-3.953-.734c-1.278-.49-2.376-1.172-3.296-2.048-1.051-.963-1.84-1.982-2.366-3.055-.525-1.073-.788-2.171-.788-3.296 0-1.256.27-2.226.81-2.913.54-.686 1.395-1.153 2.563-1.402-.219-.51-.38-.942-.482-1.292-.102-.35-.153-.62-.153-.81 0-.657.347-1.329 1.04-2.015.693-.687 1.347-1.03 1.96-1.03.263 0 .54.048.833.143a5.47 5.47 0 0 1 1.007.47c-1.125-3.183-1.942-5.64-2.453-7.37-.511-1.73-.766-2.923-.766-3.58 0-.906.233-1.624.7-2.158.468-.533 1.103-.8 1.906-.8 1.372 0 3.11 3.067 5.213 9.2.364 1.051.642 1.861.832 2.431.16-.452.387-1.095.679-1.927 2.102-6.075 3.913-9.112 5.432-9.112.744 0 1.339.252 1.785.756.445.504.668 1.18.668 2.026 0 .643-.245 1.818-.734 3.526-.49 1.708-1.23 3.943-2.223 6.702 1.314.249 2.241.803 2.781 1.665.54.861.81 2.22.81 4.074 0 3.679-1.105 6.69-3.318 9.034z"/><path d="M33.78 14.717c.547-1.73.82-2.792.82-3.187 0-.423-.09-.752-.273-.985-.183-.234-.435-.35-.756-.35-.408 0-.825.339-1.248 1.018-.424.679-.89 1.77-1.402 3.274l-2.19 6.33 2.76.482c.978-2.658 1.74-4.852 2.288-6.582z"/></g></svg>
