<svg width="70" height="82" viewBox="0 0 70 82" xmlns="http://www.w3.org/2000/svg"><title>logo-black</title><g fill="#000" fill-rule="evenodd"><path d="M.087.087h69.825v65.826H.087V.087zM15.31 24.814c0-.259.682-.683 2.05-1.272 1.366-.589 3.041-1.201 5.026-1.837a86.876 86.876 0 0 1 6.303-1.749c2.217-.53 4.254-.888 6.11-1.077-9.203 11.4-15.661 20.856-19.374 28.368-.541 1.108-.927 2.085-1.16 2.933-.232.848-.347 1.943-.347 3.285 0 1.083.115 1.902.347 2.455.233.553.626.925 1.18 1.114.554.188 1.309.282 2.262.282 5.104 0 10.287-.837 15.546-2.508 5.26-1.673 9.983-3.94 14.173-6.802 4.188-2.86 7.54-6.164 10.054-9.908 2.514-3.746 3.77-7.608 3.77-11.588 0-2.615-.458-4.97-1.373-7.065-.915-2.097-2.223-3.869-3.925-5.318-1.701-1.448-3.815-2.573-6.342-3.373-2.526-.801-5.297-1.201-8.313-1.201-3 .006-5.992.301-8.933.883-3.017.589-5.782 1.29-8.295 2.101-2.514.813-4.77 1.673-6.768 2.58-1.997.907-3.448 1.69-4.351 2.349-2.216 1.625-3.325 4.44-3.325 8.443 0 1.555.657 2.332 1.971 2.332.413 0 .903-.089 1.47-.266.568-.176 1.503-.53 2.804-1.06a90.007 90.007 0 0 1 3.79-1.447c1.224-.436 2.688-.866 4.39-1.29-1.522.024-3.217.177-5.086.46-1.87.282-2.92.424-3.152.424-.335 0-.502-.083-.502-.248zm28.994-.377l1.39-.28c.467-.092.943-.169 1.426-.227a8.12 8.12 0 0 1 1.403-.052c.974.05 1.796.311 2.47.782a4.043 4.043 0 0 1 1.468 1.85c.307.777.44 1.612.389 2.447-.073 1.354-.403 2.891-.989 4.614-.588 1.72-1.39 3.46-2.409 5.219a32.645 32.645 0 0 1-3.517 4.947 20.214 20.214 0 0 1-6.382 4.937c-2.445 1.206-4.657 1.758-6.637 1.654-1.46-.075-2.728-.54-3.802-1.392-1.074-.852-1.886-2.052-2.435-3.597-.549-1.546-.77-3.339-.663-5.38.146-2.741 1.042-5.449 2.688-8.12a31.49 31.49 0 0 1 6.084-7.18c2.41-2.113 4.815-3.782 7.219-5.007 2.404-1.224 4.336-1.798 5.795-1.722 1.192.061 2.088.473 2.686 1.233.6.76 1.133 1.967 1.602 3.617-1.563-.03-2.933.086-4.108.352-1.176.266-2.4.7-3.678 1.305z" fill-rule="nonzero"/><path d="M7.72 76.64c0 1.706-.448 2.996-1.343 3.87-.894.874-2.209 1.311-3.943 1.311H0V71.654h2.747c1.623 0 2.857.424 3.703 1.272.847.849 1.27 2.087 1.27 3.714zm-.772.028c0-1.456-.37-2.551-1.11-3.286-.74-.735-1.825-1.102-3.258-1.102H.71v8.915h1.682c3.037 0 4.556-1.509 4.556-4.527zm7.728 5.153l-.174-1.196h-.056c-.38.487-.77.831-1.171 1.033-.401.202-.876.302-1.423.302-.741 0-1.319-.19-1.731-.57-.413-.38-.62-.906-.62-1.579 0-.737.308-1.31.922-1.717.615-.408 1.504-.624 2.667-.647l1.44-.042v-.5c0-.72-.146-1.262-.438-1.628-.292-.366-.763-.55-1.412-.55-.7 0-1.426.195-2.177.585l-.257-.598c.83-.39 1.65-.584 2.462-.584.83 0 1.45.215 1.86.646.41.432.616 1.104.616 2.017v5.028h-.508zm-2.782-.486c.807 0 1.443-.231 1.91-.692.465-.462.698-1.103.698-1.923v-.745l-1.321.056c-1.062.051-1.819.217-2.271.497-.452.28-.678.718-.678 1.311 0 .473.145.84.435 1.103.29.262.699.393 1.227.393zm11.213.486v-4.903c0-.76-.16-1.313-.48-1.658-.32-.346-.816-.518-1.488-.518-.905 0-1.566.228-1.986.685-.42.456-.63 1.197-.63 2.222v4.172h-.688v-7.56h.584l.132 1.037h.042c.492-.788 1.366-1.182 2.622-1.182 1.716 0 2.573.92 2.573 2.76v4.945h-.681zm4.021 0h-.688v-7.56h.688v7.56zm-.786-9.66c0-.445.146-.667.438-.667a.39.39 0 0 1 .338.174c.08.116.121.28.121.493 0 .21-.04.374-.121.494a.385.385 0 0 1-.338.181c-.292 0-.438-.225-.438-.675zm16.145 4.563c0 1.613-.403 2.89-1.21 3.828-.806.939-1.92 1.408-3.338 1.408-1.414 0-2.524-.469-3.331-1.408-.807-.939-1.21-2.22-1.21-3.842 0-1.618.407-2.892 1.22-3.822.814-.93 1.926-1.394 3.335-1.394 1.419 0 2.53.467 3.331 1.401.802.934 1.203 2.21 1.203 3.829zm-8.317 0c0 1.455.324 2.58.973 3.376.65.795 1.581 1.193 2.796 1.193 1.224 0 2.16-.394 2.806-1.183.647-.788.97-1.917.97-3.386 0-1.465-.323-2.589-.97-3.37-.646-.781-1.577-1.172-2.792-1.172-1.21 0-2.143.394-2.8 1.183-.655.788-.983 1.907-.983 3.359zm11.372 5.097h-.688V71h.688v10.821zm5.788.14c-1.098 0-1.955-.339-2.57-1.016-.614-.677-.92-1.625-.92-2.844 0-1.206.296-2.171.89-2.897.593-.726 1.393-1.088 2.399-1.088.89 0 1.592.31 2.107.932.515.62.772 1.465.772 2.531v.556h-5.446c.01 1.039.252 1.832.727 2.379.475.547 1.156.82 2.041.82.432 0 .81-.03 1.137-.09.327-.06.741-.19 1.242-.39v.627c-.427.185-.82.311-1.182.379-.362.067-.76.1-1.197.1zm-.201-7.233c-.728 0-1.312.24-1.753.72-.44.48-.698 1.171-.772 2.075h4.674c0-.876-.19-1.56-.57-2.055-.38-.493-.907-.74-1.58-.74zm9.759 7.093l-.174-1.196h-.056c-.38.487-.77.831-1.172 1.033-.4.202-.875.302-1.422.302-.742 0-1.319-.19-1.732-.57-.412-.38-.618-.906-.618-1.579 0-.737.307-1.31.921-1.717.614-.408 1.503-.624 2.667-.647l1.44-.042v-.5c0-.72-.146-1.262-.438-1.628-.293-.366-.763-.55-1.412-.55-.7 0-1.426.195-2.177.585l-.257-.598c.83-.39 1.65-.584 2.462-.584.83 0 1.45.215 1.86.646.41.432.615 1.104.615 2.017v5.028h-.507zm-2.782-.486c.807 0 1.443-.231 1.909-.692.466-.462.699-1.103.699-1.923v-.745l-1.322.056c-1.061.051-1.818.217-2.27.497-.452.28-.678.718-.678 1.311 0 .473.145.84.434 1.103.29.262.7.393 1.228.393zm11.212.486v-4.903c0-.76-.16-1.313-.48-1.658-.32-.346-.815-.518-1.488-.518-.904 0-1.566.228-1.985.685-.42.456-.63 1.197-.63 2.222v4.172h-.688v-7.56h.584l.132 1.037h.042c.491-.788 1.365-1.182 2.622-1.182 1.715 0 2.573.92 2.573 2.76v4.945h-.682z"/></g></svg>